<svg id="visual" viewBox="0 0 960 540" width="960" height="540" xmlns="http://www.w3.org/2000/svg" xmlns:xlink="http://www.w3.org/1999/xlink" version="1.1"><rect x="0" y="0" width="960" height="540" fill="#26292b"></rect><defs><linearGradient id="grad1_0" x1="43.8%" y1="0%" x2="100%" y2="100%"><stop offset="14.444444444444446%" stop-color="#5f7adb" stop-opacity="1"></stop><stop offset="85.55555555555554%" stop-color="#5f7adb" stop-opacity="1"></stop></linearGradient></defs><defs><linearGradient id="grad1_1" x1="43.8%" y1="0%" x2="100%" y2="100%"><stop offset="14.444444444444446%" stop-color="#5f7adb" stop-opacity="1"></stop><stop offset="85.55555555555554%" stop-color="#26292b" stop-opacity="1"></stop></linearGradient></defs><defs><linearGradient id="grad2_0" x1="0%" y1="0%" x2="56.3%" y2="100%"><stop offset="14.444444444444446%" stop-color="#5f7adb" stop-opacity="1"></stop><stop offset="85.55555555555554%" stop-color="#5f7adb" stop-opacity="1"></stop></linearGradient></defs><defs><linearGradient id="grad2_1" x1="0%" y1="0%" x2="56.3%" y2="100%"><stop offset="14.444444444444446%" stop-color="#26292b" stop-opacity="1"></stop><stop offset="85.55555555555554%" stop-color="#5f7adb" stop-opacity="1"></stop></linearGradient></defs><g transform="translate(960, 0)"><path d="M0 297C-30 293.6 -59.9 290.2 -91.8 282.5C-123.6 274.7 -157.4 262.6 -170.5 234.6C-183.5 206.7 -175.8 162.9 -188.5 137C-201.2 111 -234.3 103 -255.8 83.1C-277.3 63.3 -287.2 31.6 -297 0L0 0Z" fill="#245580"></path><path d="M0 148.5C-15 146.8 -30 145.1 -45.9 141.2C-61.8 137.4 -78.7 131.3 -85.2 117.3C-91.7 103.3 -87.9 81.4 -94.3 68.5C-100.6 55.5 -117.2 51.5 -127.9 41.6C-138.7 31.6 -143.6 15.8 -148.5 0L0 0Z" fill="#5f7adb"></path></g><g transform="translate(0, 540)"><path d="M0 -297C31.5 -294.5 63 -291.9 91.8 -282.5C120.6 -273 146.7 -256.6 171.6 -236.2C196.5 -215.9 220.2 -191.5 223.3 -162.2C226.4 -132.9 208.9 -98.6 217.8 -70.8C226.7 -42.9 261.8 -21.4 297 0L0 0Z" fill="#245580"></path><path d="M0 -148.5C15.7 -147.2 31.5 -146 45.9 -141.2C60.3 -136.5 73.4 -128.3 85.8 -118.1C98.3 -107.9 110.1 -95.8 111.6 -81.1C113.2 -66.5 104.5 -49.3 108.9 -35.4C113.3 -21.4 130.9 -10.7 148.5 0L0 0Z" fill="#5f7adb"></path></g></svg>